<svg width="20" height="20" viewBox="0 0 20 20" fill="none" xmlns="http://www.w3.org/2000/svg">
<g clip-path="url(#clip0_179_1434)">
<rect y="3" width="20" height="17" rx="3" fill="#D9D9D9"/>
<rect x="4" width="2" height="6" rx="1" fill="#ABABAB"/>
<rect x="14" width="2" height="6" rx="1" fill="#ABABAB"/>
<path d="M9.61789 9.23672C9.73404 8.86085 10.2661 8.86085 10.3822 9.23673L10.8572 10.7738C10.909 10.9414 11.064 11.0557 11.2394 11.0557H12.8175C13.2002 11.0557 13.3644 11.5413 13.0604 11.7736L11.7496 12.7749C11.6164 12.8767 11.5608 13.0507 11.6103 13.2109L12.1027 14.8043C12.2177 15.1764 11.7872 15.4767 11.4777 15.2403L10.2429 14.297C10.0995 14.1874 9.90059 14.1874 9.75723 14.297L8.5224 15.2403C8.21292 15.4767 7.78242 15.1764 7.8974 14.8043L8.38982 13.2108C8.43931 13.0507 8.38368 12.8767 8.25047 12.7749L6.93975 11.7736C6.63571 11.5413 6.79996 11.0557 7.18258 11.0557H8.76073C8.93615 11.0557 9.09111 10.9414 9.1429 10.7738L9.61789 9.23672Z" fill="#828282"/>
</g>
<defs>
<clipPath id="clip0_179_1434">
<rect width="20" height="20" fill="white"/>
</clipPath>
</defs>
</svg>
