<svg width="35" height="36" viewBox="0 0 35 36" fill="none" xmlns="http://www.w3.org/2000/svg">
<line y1="-0.5" x2="22.0059" y2="-0.5" transform="matrix(0.700404 -0.713746 0.700404 0.713746 18.3246 27.0498)" stroke="#828282"/>
<line y1="-0.5" x2="22.0059" y2="-0.5" transform="matrix(0.700404 -0.713746 0.700404 0.713746 8.90544 17.4512)" stroke="#828282"/>
<line y1="-0.5" x2="14.6706" y2="-0.5" transform="matrix(-0.700404 -0.713746 0.700404 -0.713746 18.3246 27.0498)" stroke="#828282"/>
<line y1="-0.5" x2="14.6706" y2="-0.5" transform="matrix(-0.700404 -0.713746 0.700404 -0.713746 34.5939 10.4717)" stroke="#828282"/>
<line y1="-0.5" x2="11.6142" y2="-0.5" transform="matrix(-0.162841 0.995656 -0.977044 -0.165943 7.1928 17.4512)" stroke="#828282"/>
<line y1="-0.5" x2="11.6142" y2="-0.5" transform="matrix(-0.977044 0.165943 0.162841 0.995656 17.4682 27.9229)" stroke="#828282"/>
<line y1="-0.5" x2="22.0059" y2="-0.5" transform="matrix(0.700404 -0.713746 0.700404 0.713746 15.7558 24.4336)" stroke="#828282"/>
<line y1="-0.5" x2="22.0059" y2="-0.5" transform="matrix(0.700404 -0.713746 0.700404 0.713746 11.474 20.0703)" stroke="#828282"/>
<path d="M6.18685 26.5635L8.52609 28.9473L5.7361 29.4081L6.18685 26.5635Z" fill="#828282" stroke="#828282"/>
</svg>
